<svg version="1.1" id="Layer_1" xmlns="http://www.w3.org/2000/svg" xmlns:xlink="http://www.w3.org/1999/xlink" viewBox="0 0 1336 552" xml:space="preserve"><rect x="-8" y="-27"></rect><g><path fill="#FFFFFF" d="M6.5,161.4C2.2,154.1,1,145.6,1,136.5c0-20,11.5-30.3,61.3-30.3h172.9l34.6-1.2c4.2,5.5,7.9,13.3,7.9,21.8
		c0,24.3-14,40-54,40h-93.4v80.1h117.7c3,5.5,5.5,15.8,5.5,22.4c0,24.3-13.3,37.6-53.4,37.6h-69.8v122.5c-9.1,5.5-31.5,7.3-47.3,7.3
		c-27.3,0-40.6-7.9-43.1-21.8c-1.8-13.3-2.4-58.8-2.4-127.4c0-46.1,0.6-125,0.6-125L6.5,161.4z"></path><path fill="#FFFFFF" d="M392.3,438c-81.3,0-126.8-35.2-126.8-118.9c0-88,58.2-138.9,146.2-138.9c81.9,0,125.6,36.4,125.6,120.1
		C537.3,393.7,474.2,438,392.3,438z M405.6,239c-37,0-50.4,22.4-50.4,74.6c0,54,9.7,68.6,46.1,68.6c31.5,0,47.9-20,47.9-74.6
		C449.3,262.7,442,239,405.6,239z"></path><path fill="#FFFFFF" d="M682.3,438c-81.3,0-126.8-35.2-126.8-118.9c0-88,58.2-138.9,146.2-138.9c81.9,0,125.6,36.4,125.6,120.1
		C827.3,393.7,764.2,438,682.3,438z M695.6,239c-37,0-50.4,22.4-50.4,74.6c0,54,9.7,68.6,46.1,68.6c31.5,0,47.9-20,47.9-74.6
		C739.3,262.7,732,239,695.6,239z"></path><path fill="#FFFFFF" d="M1080.8,436.8c-24.9,0-41.9-3-52.8-8.5l4.9-48.5c-10.3,38.8-41.9,57.6-82.5,57.6c-69.2,0-105-29.7-105-115.9
		c0-94,59.5-141.4,145.6-141.4c10.9,0,20,0,33.4,1.2c0.6-92.2,1.2-69.8,1.8-88c1.2-19.4,18.2-29.7,44.9-29.7
		c12.7,0,32.8,1.8,43.1,6.1v310l28.5,0.6c3,5.5,5.5,14.6,5.5,21.2C1148.2,427.1,1128.1,436.8,1080.8,436.8z M1024.4,237.8
		c-10.9-1.8-18.2-2.4-33.4-2.4c-34,0-57,24.3-57,76.4c0,51,13.3,67.9,47.9,67.9c14.6,0,31.5-6.1,42.5-18.2V237.8z"></path></g><g><path fill="#F5CF35" d="M1228.2,436.8c-30.9,0-49.1-11.5-49.1-44.9c0-27.9,18.2-47.3,55.8-47.3c34.6,0,47.3,17,47.3,43.7
		C1282.2,414.9,1267.1,436.8,1228.2,436.8z"></path></g></svg>